<svg width="600" height="427" viewBox="0 0 600 427" fill="none" xmlns="http://www.w3.org/2000/svg">
<g clip-path="url(#clip0_1_2)">
<path d="M207.827 406.195C207.358 406.22 206.894 406.08 206.497 405.795C206.101 405.51 205.791 405.094 205.61 404.603C205.429 404.112 205.386 403.569 205.486 403.049C205.585 402.529 205.824 402.056 206.168 401.695L206.325 400.987C206.304 400.931 206.284 400.874 206.263 400.817C205.79 399.552 204.999 398.473 203.988 397.716C202.977 396.959 201.792 396.558 200.581 396.563C199.37 396.568 198.187 396.979 197.181 397.745C196.175 398.51 195.391 399.596 194.927 400.865C193.073 405.932 190.712 411.008 190.131 416.365C189.875 418.733 189.983 421.133 190.45 423.46C186.096 412.681 183.834 400.966 183.82 389.109C183.819 386.134 183.965 383.16 184.256 380.203C184.497 377.779 184.832 375.373 185.259 372.983C187.593 360.017 192.604 347.865 199.881 337.524C203.403 335.343 206.251 331.99 208.042 327.916C208.691 326.452 209.149 324.888 209.403 323.275C209.006 323.334 207.905 316.468 208.205 316.047C207.651 315.094 206.66 314.62 206.056 313.689C203.048 309.063 198.905 309.871 196.742 316.158C192.121 318.804 192.076 323.193 194.912 327.414C196.716 330.099 196.963 333.732 198.546 336.607C198.383 336.844 198.214 337.073 198.051 337.309C195.075 341.652 192.48 346.316 190.305 351.233C190.834 345.724 190.203 340.152 188.464 334.974C186.701 330.148 183.397 326.084 180.487 321.913C176.992 316.902 169.825 319.089 169.209 325.441C169.203 325.502 169.197 325.564 169.191 325.625C169.624 325.902 170.047 326.195 170.461 326.506C170.981 326.9 171.384 327.463 171.617 328.122C171.85 328.781 171.902 329.504 171.767 330.197C171.632 330.889 171.315 331.52 170.859 332.005C170.402 332.49 169.827 332.808 169.209 332.916L169.146 332.927C169.3 334.694 169.572 336.446 169.96 338.167C166.227 354.547 174.286 360.513 185.793 360.781C186.047 360.929 186.295 361.077 186.549 361.217C184.364 368.244 182.993 375.562 182.472 382.99C182.176 387.372 182.194 391.773 182.524 396.152L182.504 395.997C181.671 391.128 179.381 386.734 176.024 383.559C171.037 378.91 163.991 377.198 158.61 373.462C158.039 373.045 157.374 372.823 156.694 372.821C156.015 372.819 155.349 373.038 154.775 373.451C154.202 373.865 153.744 374.455 153.457 375.154C153.17 375.853 153.064 376.63 153.154 377.395C153.161 377.449 153.168 377.503 153.176 377.558C153.978 377.928 154.759 378.355 155.514 378.836C155.946 379.113 156.369 379.407 156.783 379.717C157.303 380.111 157.706 380.675 157.939 381.333C158.172 381.992 158.225 382.715 158.089 383.408C157.954 384.101 157.637 384.731 157.181 385.216C156.725 385.701 156.15 386.019 155.532 386.127L155.468 386.138C155.423 386.145 155.384 386.153 155.338 386.16C156.708 389.873 158.632 393.29 161.024 396.263C163.358 410.562 173.383 411.919 184.106 407.755H184.113C185.29 413.556 186.994 419.204 189.2 424.605H207.371C207.437 424.376 207.495 424.14 207.554 423.91C205.872 424.03 204.183 423.916 202.526 423.571C203.874 421.693 205.222 419.801 206.57 417.924C206.6 417.889 206.629 417.852 206.655 417.813C207.339 416.853 208.029 415.899 208.713 414.938L208.713 414.937C208.75 411.992 208.451 409.054 207.827 406.195Z" fill="white"/>
<path d="M428.483 215.997H13.9322C10.2384 215.993 6.69718 214.325 4.08531 211.362C1.47343 208.398 0.00420621 204.38 -6.10352e-05 200.189V15.8089C0.00420621 11.6176 1.47343 7.59933 4.08531 4.63564C6.69718 1.67195 10.2384 0.00481153 13.9322 -3.05176e-05H428.483C432.177 0.00481153 435.718 1.67195 438.33 4.63564C440.942 7.59933 442.411 11.6176 442.416 15.8089V200.189C442.411 204.38 440.942 208.398 438.33 211.362C435.718 214.325 432.177 215.993 428.483 215.997Z" fill="#F2F2F2"/>
<path d="M331.801 205.915H79.7358C60.9523 205.891 42.9441 197.413 29.6622 182.342C16.3802 167.271 8.90907 146.837 8.88788 125.524V90.4825C8.90905 69.1688 16.3802 48.7349 29.6621 33.6637C42.9441 18.5926 60.9522 10.115 79.7358 10.0908H362.682C381.466 10.115 399.474 18.5926 412.756 33.6637C426.038 48.7349 433.509 69.1688 433.53 90.4825C433.499 121.086 422.772 150.427 403.7 172.067C384.629 193.707 358.772 205.88 331.801 205.915Z" fill="white"/>
<path d="M266.778 62.8726H100.16C99.2073 62.8726 98.2934 62.4431 97.6195 61.6784C96.9457 60.9138 96.5671 59.8768 96.5671 58.7955C96.5671 57.7142 96.9457 56.6771 97.6195 55.9125C98.2934 55.1479 99.2073 54.7184 100.16 54.7184H266.778C267.731 54.7184 268.645 55.1479 269.319 55.9125C269.993 56.6771 270.371 57.7142 270.371 58.7955C270.371 59.8768 269.993 60.9138 269.319 61.6784C268.645 62.4431 267.731 62.8726 266.778 62.8726Z" fill="#E6E6E6"/>
<path d="M351.123 106.373H100.16C99.2073 106.373 98.2934 105.943 97.6195 105.179C96.9457 104.414 96.5671 103.377 96.5671 102.296C96.5671 101.214 96.9457 100.177 97.6195 99.4127C98.2934 98.6481 99.2073 98.2186 100.16 98.2186H351.123C352.076 98.2186 352.99 98.6481 353.664 99.4127C354.338 100.177 354.716 101.214 354.716 102.296C354.716 103.377 354.338 104.414 353.664 105.179C352.99 105.943 352.076 106.373 351.123 106.373Z" fill="#E6E6E6"/>
<path d="M351.123 149.873H100.16C99.2073 149.873 98.2934 149.443 97.6195 148.679C96.9457 147.914 96.5671 146.877 96.5671 145.796C96.5671 144.715 96.9457 143.678 97.6195 142.913C98.2934 142.148 99.2073 141.719 100.16 141.719H351.123C352.076 141.719 352.99 142.148 353.664 142.913C354.338 143.678 354.716 144.715 354.716 145.796C354.716 146.877 354.338 147.914 353.664 148.679C352.99 149.443 352.076 149.873 351.123 149.873Z" fill="#E6E6E6"/>
<path d="M351.123 149.873H100.16C99.2073 149.873 98.2934 149.443 97.6195 148.679C96.9457 147.914 96.5671 146.877 96.5671 145.796C96.5671 144.715 96.9457 143.678 97.6195 142.913C98.2934 142.148 99.2073 141.719 100.16 141.719H351.123C352.076 141.719 352.99 142.148 353.664 142.913C354.338 143.678 354.716 144.715 354.716 145.796C354.716 146.877 354.338 147.914 353.664 148.679C352.99 149.443 352.076 149.873 351.123 149.873Z" fill="#E6E6E6"/>
<path d="M326.832 75.0493C329.13 60.8406 334.5 48.4005 343.941 38.303C344.288 37.5597 344.881 37.003 345.589 36.7549C346.298 36.5069 347.064 36.5878 347.72 36.9799L372.177 51.6419C372.832 52.0356 373.323 52.7082 373.541 53.5119C373.76 54.3157 373.689 55.185 373.343 55.9292L356.234 92.6754C355.886 93.4187 355.294 93.9755 354.585 94.2236C353.877 94.4716 353.111 94.3907 352.455 93.9986L327.998 79.3366C327.343 78.9428 326.852 78.2703 326.634 77.4666C326.415 76.6628 326.486 75.7934 326.832 75.0493Z" fill="#E6E6E6"/>
<path d="M333.876 65.075C334.178 57.6583 338.945 49.6339 344.875 41.4512C345.2 40.755 345.755 40.2336 346.419 40.0013C347.082 39.769 347.8 39.8448 348.414 40.212L369.433 52.8128C370.046 53.1816 370.506 53.8114 370.711 54.5642C370.915 55.3169 370.849 56.1311 370.525 56.8281L355.3 89.5273C354.975 90.2234 354.42 90.7448 353.756 90.9771C353.093 91.2094 352.375 91.1336 351.761 90.7663L338.74 82.9604C336.008 81.3177 333.961 78.5121 333.049 75.1591C332.137 71.8061 332.434 68.1795 333.876 65.075Z" fill="white"/>
<path d="M358.557 69.8071L342.144 60.0334C341.884 59.8771 341.689 59.6103 341.602 59.2914C341.515 58.9725 341.543 58.6275 341.68 58.3319C341.817 58.0363 342.051 57.8141 342.332 57.7142C342.612 57.6142 342.917 57.6445 343.178 57.7985L359.591 67.5722C359.851 67.7285 360.046 67.9953 360.133 68.3142C360.22 68.6331 360.192 68.9782 360.055 69.2738C359.918 69.5694 359.684 69.7914 359.403 69.8914C359.122 69.9914 358.818 69.9611 358.557 69.8071Z" fill="#312E81"/>
<path d="M348.589 56.0555L344.978 53.9052C344.848 53.8286 344.733 53.7236 344.639 53.5963C344.545 53.469 344.474 53.3219 344.43 53.1634C344.386 53.0048 344.37 52.838 344.383 52.6726C344.397 52.5071 344.438 52.3462 344.506 52.1991C344.574 52.0519 344.667 51.9215 344.78 51.8153C344.892 51.709 345.022 51.629 345.162 51.5799C345.302 51.5308 345.449 51.5135 345.595 51.529C345.741 51.5445 345.882 51.5926 346.012 51.6703L349.623 53.8206C349.883 53.9769 350.077 54.2437 350.164 54.5626C350.251 54.8815 350.224 55.2265 350.087 55.5221C349.95 55.8177 349.716 56.0398 349.435 56.1397C349.154 56.2397 348.85 56.2094 348.589 56.0555Z" fill="#312E81"/>
<path d="M354.013 79.6323L337.6 69.8585C337.34 69.7024 337.145 69.4356 337.057 69.1165C336.97 68.7975 336.998 68.4522 337.135 68.1564C337.272 67.8607 337.506 67.6385 337.787 67.5386C338.068 67.4387 338.372 67.4693 338.634 67.6236L355.047 77.3974C355.307 77.5536 355.502 77.8204 355.588 78.1393C355.675 78.4583 355.648 78.8033 355.511 79.0989C355.374 79.3945 355.14 79.6166 354.859 79.7165C354.578 79.8165 354.274 79.7862 354.013 79.6323Z" fill="#312E81"/>
<path d="M356.285 74.7197L339.872 64.946C339.742 64.8693 339.627 64.7644 339.533 64.6371C339.439 64.5097 339.368 64.3626 339.324 64.2041C339.28 64.0456 339.264 63.8788 339.277 63.7133C339.29 63.5478 339.332 63.3869 339.4 63.2398C339.468 63.0927 339.561 62.9623 339.674 62.856C339.786 62.7498 339.916 62.6698 340.056 62.6207C340.196 62.5715 340.343 62.5542 340.489 62.5697C340.635 62.5853 340.776 62.6333 340.906 62.7111L357.319 72.4848C357.579 72.6411 357.774 72.9079 357.861 73.2268C357.948 73.5457 357.92 73.8907 357.783 74.1863C357.646 74.4819 357.412 74.704 357.131 74.804C356.85 74.904 356.546 74.8736 356.285 74.7197Z" fill="#312E81"/>
<path d="M503.687 324.413H495.197C494.796 324.413 494.398 324.503 494.027 324.677C493.656 324.852 493.319 325.107 493.035 325.429C492.752 325.751 492.526 326.134 492.373 326.555C492.219 326.976 492.14 327.427 492.14 327.882C492.14 328.802 491.818 329.684 491.245 330.335C490.671 330.986 489.894 331.351 489.083 331.351H460.779C460.378 331.351 459.98 331.261 459.609 331.087C459.238 330.913 458.901 330.657 458.617 330.335C458.334 330.013 458.108 329.631 457.955 329.21C457.801 328.789 457.722 328.338 457.722 327.882L457.162 324.366L452.032 316.944C451.864 316.697 451.648 316.497 451.4 316.361C451.153 316.225 450.881 316.155 450.606 316.158H440.985C440.504 316.159 440.044 316.375 439.704 316.761C439.364 317.146 439.173 317.669 439.173 318.214L438.974 324.366H435.337C434.573 324.366 433.816 324.537 433.11 324.868C432.404 325.2 431.763 325.686 431.223 326.299C430.683 326.912 430.254 327.64 429.962 328.441C429.669 329.242 429.519 330.1 429.519 330.967V373.961C429.519 374.731 429.652 375.492 429.912 376.203C430.171 376.914 430.552 377.56 431.031 378.104C431.51 378.648 432.08 379.079 432.706 379.374C433.332 379.668 434.004 379.819 434.682 379.819H503.687C505.055 379.818 506.368 379.2 507.335 378.101C508.303 377.003 508.847 375.514 508.848 373.961V330.27C508.848 329.501 508.715 328.739 508.455 328.029C508.196 327.318 507.816 326.673 507.336 326.129C506.857 325.585 506.288 325.153 505.662 324.859C505.036 324.565 504.365 324.413 503.687 324.413Z" fill="#F2F2F2"/>
<path d="M457.165 324.207H439.173V318.055C439.173 317.51 439.364 316.988 439.704 316.602C440.044 316.217 440.504 316 440.985 315.999H450.606C450.881 315.996 451.153 316.066 451.4 316.202C451.648 316.339 451.864 316.538 452.032 316.785L457.165 324.207Z" fill="#E6E6E6"/>
<path d="M466.378 375.088H436.335C435.384 375.087 434.472 374.658 433.8 373.895C433.127 373.132 432.749 372.097 432.748 371.018V361.695C432.749 360.616 433.127 359.582 433.8 358.819C434.472 358.056 435.384 357.626 436.335 357.625H472.393C473.344 357.626 474.256 358.056 474.929 358.819C475.601 359.582 475.979 360.616 475.98 361.695V364.192C475.978 367.081 474.965 369.851 473.165 371.893C471.365 373.936 468.924 375.085 466.378 375.088Z" fill="white"/>
<path d="M444.983 364.658H437.568C437.086 364.658 436.623 364.44 436.282 364.053C435.941 363.666 435.749 363.141 435.749 362.594C435.749 362.046 435.941 361.521 436.282 361.134C436.623 360.747 437.086 360.53 437.568 360.53H444.983C445.466 360.53 445.928 360.747 446.269 361.134C446.61 361.521 446.802 362.046 446.802 362.594C446.802 363.141 446.61 363.666 446.269 364.053C445.928 364.44 445.466 364.658 444.983 364.658Z" fill="#F2F2F2"/>
<path d="M470.167 371.167H437.568C437.329 371.167 437.092 371.114 436.871 371.011C436.65 370.907 436.449 370.755 436.279 370.564C436.11 370.372 435.976 370.144 435.884 369.894C435.792 369.643 435.745 369.374 435.745 369.103C435.745 368.831 435.792 368.563 435.884 368.312C435.976 368.061 436.11 367.834 436.279 367.642C436.449 367.45 436.65 367.298 436.871 367.195C437.092 367.091 437.329 367.038 437.568 367.039H470.167C470.65 367.039 471.112 367.256 471.453 367.644C471.794 368.031 471.986 368.555 471.986 369.103C471.986 369.65 471.794 370.175 471.453 370.562C471.112 370.949 470.649 371.167 470.167 371.167Z" fill="#F2F2F2"/>
<path d="M533.847 371.585H525.357C524.955 371.585 524.558 371.675 524.187 371.849C523.816 372.023 523.479 372.279 523.195 372.601C522.911 372.923 522.686 373.305 522.533 373.726C522.379 374.147 522.3 374.598 522.3 375.054C522.3 375.974 521.978 376.856 521.405 377.506C520.831 378.157 520.054 378.522 519.243 378.522H490.939C490.538 378.522 490.14 378.433 489.769 378.258C489.398 378.084 489.061 377.829 488.777 377.506C488.493 377.184 488.268 376.802 488.115 376.381C487.961 375.96 487.882 375.509 487.882 375.054L487.322 371.537L482.192 364.115C482.024 363.868 481.808 363.669 481.56 363.532C481.313 363.396 481.041 363.327 480.766 363.329H471.144C470.664 363.33 470.204 363.547 469.864 363.932C469.524 364.318 469.333 364.84 469.333 365.385L469.134 371.537H465.496C464.732 371.537 463.976 371.708 463.27 372.04C462.564 372.371 461.923 372.858 461.383 373.471C460.842 374.084 460.414 374.811 460.122 375.612C459.829 376.413 459.679 377.272 459.679 378.138V421.133C459.679 421.902 459.812 422.664 460.072 423.375C460.331 424.085 460.711 424.731 461.191 425.275C461.67 425.819 462.239 426.251 462.866 426.545C463.492 426.839 464.163 426.991 464.841 426.991H533.847C535.215 426.989 536.527 426.371 537.495 425.273C538.463 424.175 539.007 422.686 539.008 421.133V377.441C539.008 376.672 538.875 375.911 538.615 375.2C538.356 374.49 537.976 373.844 537.496 373.3C537.017 372.756 536.448 372.325 535.822 372.031C535.196 371.736 534.525 371.585 533.847 371.585Z" fill="#F2F2F2"/>
<path d="M487.325 371.378H469.333V365.227C469.333 364.682 469.524 364.159 469.864 363.774C470.204 363.388 470.664 363.171 471.144 363.171H480.766C481.041 363.168 481.313 363.237 481.56 363.374C481.808 363.51 482.024 363.71 482.192 363.957L487.325 371.378Z" fill="#E6E6E6"/>
<path d="M496.538 422.26H466.495C465.544 422.259 464.632 421.829 463.96 421.066C463.287 420.303 462.909 419.269 462.908 418.19V408.867C462.909 407.788 463.287 406.753 463.96 405.99C464.632 405.227 465.544 404.798 466.495 404.797H502.553C503.504 404.798 504.416 405.227 505.089 405.99C505.761 406.753 506.139 407.788 506.14 408.867V411.364C506.137 414.253 505.125 417.022 503.325 419.065C501.524 421.108 499.084 422.257 496.538 422.26Z" fill="white"/>
<path d="M475.143 411.829H467.728C467.245 411.829 466.783 411.612 466.442 411.225C466.101 410.838 465.909 410.313 465.909 409.765C465.909 409.218 466.101 408.693 466.442 408.306C466.783 407.919 467.245 407.701 467.728 407.701H475.143C475.625 407.701 476.088 407.919 476.429 408.306C476.77 408.693 476.962 409.218 476.962 409.765C476.962 410.313 476.77 410.838 476.429 411.225C476.088 411.612 475.625 411.829 475.143 411.829Z" fill="#F2F2F2"/>
<path d="M500.327 418.338H467.728C467.489 418.339 467.252 418.286 467.031 418.182C466.809 418.079 466.609 417.927 466.439 417.735C466.27 417.543 466.136 417.316 466.044 417.065C465.952 416.814 465.905 416.546 465.905 416.274C465.905 416.003 465.952 415.734 466.044 415.483C466.136 415.233 466.27 415.005 466.439 414.813C466.609 414.622 466.809 414.47 467.031 414.366C467.252 414.263 467.489 414.21 467.728 414.21H500.327C500.809 414.21 501.272 414.428 501.613 414.815C501.954 415.202 502.146 415.727 502.146 416.274C502.146 416.822 501.954 417.347 501.613 417.734C501.272 418.121 500.809 418.338 500.327 418.338Z" fill="#F2F2F2"/>
<path d="M398.98 410.802L391.97 410.801L388.636 380.12H398.982L398.98 410.802Z" fill="#FFB6B6"/>
<path d="M377.822 422.538C377.825 423.429 378.138 424.283 378.693 424.913C379.248 425.544 380 425.901 380.785 425.907H393.981L394.39 424.945L396.257 420.575L396.98 424.945L397.14 425.907H402.117L402.046 424.938L400.719 406.878L398.982 406.757L391.481 406.253L389.638 406.125V411.518C388.239 413.205 377.265 419.586 377.822 422.538Z" fill="#2F2E41"/>
<path d="M515.046 349.366L511.658 356.33L486.374 344.816L491.375 334.538L515.046 349.366Z" fill="#FFB6B6"/>
<path d="M513.876 376.057C514.565 376.484 515.375 376.586 516.129 376.34C516.884 376.093 517.523 375.519 517.907 374.742L524.284 361.632L523.74 360.762L521.27 356.795L524.991 358.189L525.81 358.495L528.216 353.55L527.434 353.153L512.859 345.744L511.926 347.41L507.912 354.619L506.923 356.388L511.083 358.994C511.709 361.198 511.329 375.184 513.876 376.057Z" fill="#2F2E41"/>
<path d="M410.71 208.585L437.198 221.347C437.198 221.347 445.672 241.876 439.811 244.818V299.09L500.312 338.82L482.076 373.384C482.076 373.384 458.669 366.524 458.914 360.26C459.158 353.997 461.857 351.519 453.82 350.715C445.783 349.911 441.23 350.582 441.449 344.993C441.667 339.404 413.064 310.342 413.064 310.342L410.71 208.585Z" fill="#2F2E41"/>
<path d="M417.056 219.005L410.34 210.443C410.34 210.443 395.255 238.548 395.312 244.321C395.369 250.094 382.508 279.864 382.508 279.864L366.561 386.102C366.561 386.102 397.32 394.398 399.688 394.628C402.056 394.858 406.05 396.274 403.539 390.896C401.027 385.518 403.539 385.518 403.539 385.518L405.082 303.723L417.056 247.465V219.005Z" fill="#2F2E41"/>
<path d="M413.534 136.707L426.395 133.205L433.831 143.556C437.226 147.179 439.756 151.718 441.188 156.751C442.619 161.783 442.905 167.145 442.018 172.336L435.14 212.591C435.14 212.591 447.486 225.433 445.943 232.438C443.44 243.799 415.834 233.766 411.083 234.561C406.332 235.356 400.159 226.633 399.13 221.655C398.101 216.677 402.297 204.73 403.76 205.003C405.222 205.276 399.725 180.289 399.725 180.289C399.725 180.289 400.159 163.558 405.303 158.889C408.458 155.973 411.025 152.325 412.833 148.189L413.534 136.707Z" fill="#312E81"/>
<path d="M357.698 73.5933C357.708 74.5747 357.905 75.5418 358.277 76.428C358.649 77.3141 359.186 78.098 359.851 78.7255C360.516 79.353 361.293 79.8091 362.128 80.0623C362.964 80.3155 363.838 80.3596 364.69 80.1918L380.879 108.534L388.889 105.38L369.444 71.8776C369.088 70.271 368.226 68.8683 367.019 67.9352C365.813 67.0022 364.347 66.6036 362.899 66.8151C361.451 67.0266 360.122 67.8334 359.163 69.0827C358.205 70.332 357.683 71.9369 357.698 73.5933Z" fill="#FFB6B6"/>
<path d="M422.615 172.397C422.615 172.397 428.712 157.585 424.075 151.002C419.438 144.419 416.049 137.727 413.454 135.914C410.86 134.101 400.517 113.111 397.91 112.484C395.304 111.857 397.329 108.454 393.689 106.628C390.05 104.801 389.004 104.788 389.016 103.602C389.028 102.416 380.141 88.1773 380.141 88.1773L371.006 94.6116L393.322 146.413L422.615 172.397Z" fill="#312E81"/>
<path d="M365.021 311.004C353.334 293.365 346.579 273.641 346.358 251.153C345.981 249.941 346.044 248.61 346.532 247.45C347.02 246.29 347.893 245.398 348.96 244.968L388.795 228.974C389.863 228.547 391.037 228.618 392.059 229.171C393.081 229.725 393.867 230.716 394.246 231.927L412.909 291.778C413.286 292.989 413.223 294.321 412.735 295.481C412.248 296.641 411.374 297.533 410.307 297.963L370.472 313.957C369.404 314.384 368.231 314.313 367.209 313.759C366.187 313.206 365.4 312.215 365.021 311.004Z" fill="#E6E6E6"/>
<path d="M362.44 291.7C355.411 283.636 352.402 269.253 350.441 253.222C350.089 252.087 350.147 250.84 350.604 249.754C351.061 248.668 351.879 247.832 352.878 247.429L387.113 233.684C388.113 233.284 389.212 233.351 390.17 233.869C391.127 234.387 391.864 235.315 392.218 236.449L408.826 289.708C409.179 290.843 409.12 292.091 408.663 293.177C408.206 294.263 407.388 295.099 406.389 295.502L385.181 304.016C380.726 305.799 375.829 305.503 371.566 303.194C367.303 300.885 364.02 296.751 362.44 291.7Z" fill="white"/>
<path d="M392.677 265.14L366.009 275.942C365.584 276.113 365.117 276.087 364.71 275.868C364.303 275.649 363.989 275.256 363.838 274.774C363.686 274.293 363.709 273.762 363.902 273.3C364.095 272.838 364.442 272.482 364.866 272.31L391.534 261.509C391.744 261.424 391.967 261.387 392.19 261.399C392.413 261.412 392.631 261.474 392.833 261.583C393.035 261.691 393.216 261.843 393.365 262.031C393.515 262.219 393.631 262.438 393.706 262.677C393.781 262.915 393.814 263.168 393.802 263.421C393.791 263.674 393.736 263.921 393.641 264.15C393.545 264.379 393.411 264.584 393.246 264.754C393.08 264.924 392.887 265.055 392.677 265.14Z" fill="#312E81"/>
<path d="M368.744 263.608L362.877 265.985C362.452 266.155 361.986 266.128 361.58 265.909C361.173 265.69 360.86 265.297 360.709 264.816C360.558 264.335 360.581 263.806 360.773 263.344C360.965 262.882 361.311 262.526 361.734 262.353L367.601 259.977C368.025 259.807 368.492 259.834 368.898 260.053C369.305 260.272 369.618 260.665 369.769 261.146C369.92 261.627 369.897 262.156 369.705 262.618C369.513 263.079 369.167 263.436 368.744 263.608Z" fill="#312E81"/>
<path d="M397.699 281.104L371.031 291.905C370.821 291.99 370.598 292.028 370.375 292.015C370.152 292.003 369.934 291.94 369.732 291.832C369.53 291.723 369.349 291.571 369.2 291.383C369.05 291.196 368.934 290.976 368.859 290.738C368.784 290.499 368.752 290.247 368.763 289.994C368.774 289.741 368.829 289.493 368.924 289.264C369.02 289.035 369.154 288.83 369.319 288.66C369.485 288.491 369.678 288.359 369.888 288.274L396.556 277.473C396.766 277.388 396.989 277.35 397.212 277.363C397.435 277.376 397.653 277.438 397.855 277.546C398.057 277.655 398.237 277.807 398.387 277.995C398.537 278.183 398.652 278.402 398.727 278.64C398.802 278.879 398.835 279.132 398.824 279.384C398.813 279.637 398.758 279.885 398.663 280.114C398.567 280.343 398.433 280.548 398.267 280.718C398.102 280.888 397.909 281.019 397.699 281.104Z" fill="#312E81"/>
<path d="M395.188 273.122L368.52 283.923C368.31 284.009 368.087 284.046 367.864 284.033C367.641 284.021 367.423 283.958 367.221 283.85C367.019 283.742 366.839 283.589 366.689 283.401C366.539 283.214 366.423 282.994 366.348 282.756C366.273 282.518 366.241 282.265 366.252 282.012C366.263 281.759 366.318 281.511 366.413 281.282C366.509 281.054 366.643 280.848 366.809 280.678C366.974 280.509 367.167 280.377 367.377 280.292L394.045 269.491C394.47 269.319 394.937 269.345 395.344 269.564C395.751 269.783 396.065 270.177 396.217 270.658C396.368 271.14 396.345 271.67 396.152 272.132C395.959 272.594 395.612 272.95 395.188 273.122Z" fill="#312E81"/>
<path d="M415.093 131.429C422.719 131.429 428.901 124.414 428.901 115.761C428.901 107.108 422.719 100.094 415.093 100.094C407.467 100.094 401.285 107.108 401.285 115.761C401.285 124.414 407.467 131.429 415.093 131.429Z" fill="#FFB6B6"/>
<path d="M400.574 113.717C401.307 114.271 402.181 114.536 403.061 114.47C403.263 113.271 403.296 112.043 403.157 110.832C403.68 111.919 404.074 113.079 404.328 114.284C406.783 113.675 406.674 112.847 409.204 113.28C409.899 113.447 410.557 113.773 411.136 114.24C411.715 114.707 412.203 115.304 412.57 115.995C412.936 116.685 413.174 117.453 413.268 118.252C413.362 119.051 413.31 119.863 413.115 120.638C413.651 119.307 415.877 119.912 416.253 121.436C416.644 123.039 415.783 124.66 414.957 126.037C412.011 130.956 419.632 140.025 416.685 144.945L416.275 145.501C418.851 143.98 421.288 142.173 423.551 140.108C423.164 138.164 423.097 136.156 423.353 134.185C423.673 135.809 424.457 137.267 425.582 138.334C433.919 130.916 443.948 120.237 442.104 117.645L436.492 106.421C430.594 94.6293 416.369 89.8926 407.557 99.0484C407.326 99.2926 406.804 99.1307 406.572 99.3877C404.04 100.132 400.799 101.481 399.145 103.777C397.497 106.078 398.41 112.059 400.574 113.717Z" fill="#2F2E41"/>
<path d="M411.377 235.048C400.143 228.252 391.327 218.669 385.713 205.397C385.194 204.796 384.907 203.986 384.913 203.145C384.92 202.304 385.22 201.5 385.749 200.91L405.484 178.918C406.013 178.329 406.727 178.003 407.468 178.011C408.209 178.018 408.918 178.359 409.438 178.959L435.101 208.61C435.62 209.211 435.908 210.02 435.901 210.862C435.894 211.703 435.594 212.506 435.066 213.097L415.331 235.089C414.801 235.678 414.087 236.004 413.346 235.996C412.605 235.989 411.897 235.648 411.377 235.048Z" fill="#E6E6E6"/>
<path d="M405.139 224.405C399.003 221.827 393.711 214.238 388.64 205.343C388.154 204.78 387.885 204.022 387.891 203.234C387.897 202.446 388.179 201.694 388.673 201.141L405.634 182.24C406.13 181.689 406.798 181.383 407.492 181.39C408.187 181.398 408.85 181.717 409.337 182.278L432.174 208.664C432.66 209.227 432.93 209.985 432.923 210.773C432.917 211.561 432.636 212.313 432.141 212.866L421.634 224.574C419.425 227.03 416.448 228.392 413.356 228.36C410.263 228.329 407.308 226.906 405.139 224.405Z" fill="white"/>
<path d="M416.604 199.157L403.415 213.936C403.311 214.052 403.188 214.144 403.053 214.207C402.917 214.27 402.772 214.301 402.626 214.3C402.48 214.299 402.336 214.266 402.201 214.201C402.066 214.137 401.944 214.043 401.842 213.925C401.739 213.807 401.658 213.667 401.603 213.514C401.548 213.36 401.52 213.196 401.521 213.03C401.522 212.864 401.552 212.7 401.608 212.548C401.665 212.395 401.748 212.256 401.852 212.14L415.041 197.361C415.145 197.244 415.268 197.152 415.403 197.09C415.538 197.027 415.683 196.995 415.829 196.996C415.975 196.997 416.12 197.031 416.254 197.095C416.389 197.16 416.511 197.254 416.614 197.372C416.716 197.49 416.798 197.629 416.853 197.783C416.908 197.936 416.936 198.101 416.935 198.267C416.934 198.432 416.904 198.596 416.847 198.749C416.79 198.902 416.708 199.04 416.604 199.157Z" fill="#312E81"/>
<path d="M402.031 205.76L399.129 209.012C398.919 209.247 398.636 209.378 398.341 209.376C398.046 209.373 397.764 209.238 397.556 209C397.349 208.762 397.234 208.44 397.235 208.106C397.237 207.771 397.356 207.451 397.566 207.216L400.468 203.964C400.572 203.847 400.695 203.755 400.83 203.692C400.965 203.629 401.11 203.597 401.257 203.598C401.403 203.599 401.548 203.633 401.682 203.697C401.817 203.761 401.94 203.855 402.042 203.973C402.145 204.091 402.226 204.231 402.281 204.385C402.336 204.539 402.364 204.704 402.363 204.87C402.362 205.035 402.332 205.2 402.275 205.352C402.218 205.505 402.135 205.644 402.031 205.76Z" fill="#312E81"/>
<path d="M423.475 207.052L410.286 221.831C410.182 221.947 410.059 222.039 409.924 222.102C409.788 222.165 409.644 222.196 409.497 222.195C409.351 222.194 409.207 222.161 409.072 222.096C408.938 222.032 408.816 221.938 408.713 221.82C408.61 221.702 408.529 221.562 408.474 221.409C408.419 221.255 408.391 221.091 408.392 220.925C408.393 220.759 408.423 220.595 408.48 220.443C408.536 220.29 408.619 220.151 408.723 220.035L421.912 205.256C422.016 205.139 422.139 205.047 422.274 204.985C422.409 204.922 422.554 204.89 422.7 204.891C422.846 204.892 422.991 204.926 423.126 204.99C423.26 205.055 423.382 205.149 423.485 205.267C423.588 205.385 423.669 205.524 423.724 205.678C423.779 205.831 423.807 205.996 423.806 206.162C423.805 206.327 423.775 206.491 423.718 206.644C423.662 206.797 423.579 206.935 423.475 207.052Z" fill="#312E81"/>
<path d="M420.039 203.104L406.85 217.883C406.747 218 406.623 218.093 406.488 218.155C406.353 218.218 406.208 218.25 406.061 218.249C405.915 218.248 405.77 218.215 405.636 218.151C405.501 218.086 405.379 217.992 405.276 217.874C405.173 217.756 405.092 217.616 405.037 217.462C404.982 217.309 404.954 217.144 404.955 216.978C404.956 216.812 404.986 216.648 405.043 216.495C405.1 216.342 405.183 216.204 405.287 216.087L418.476 201.308C418.686 201.073 418.97 200.942 419.265 200.945C419.559 200.947 419.842 201.082 420.049 201.32C420.256 201.558 420.371 201.88 420.37 202.214C420.368 202.549 420.249 202.869 420.039 203.104Z" fill="#312E81"/>
<path d="M391.766 265.758C391.602 264.795 391.625 263.802 391.832 262.849C392.04 261.897 392.427 261.006 392.968 260.24C393.508 259.474 394.189 258.851 394.963 258.412C395.737 257.974 396.586 257.732 397.45 257.703L408.301 226.253L416.706 227.52L403.577 264.766C403.512 266.421 402.915 267.992 401.898 269.18C400.881 270.369 399.515 271.093 398.06 271.215C396.604 271.337 395.159 270.849 393.999 269.844C392.839 268.838 392.044 267.384 391.766 265.758Z" fill="#FFB6B6"/>
<path d="M437.904 154.19C437.904 154.19 446.494 167.314 443.115 174.818C439.735 182.323 437.598 189.65 435.376 192.017C433.154 194.383 426.731 217.3 424.289 218.508C421.846 219.715 424.431 222.588 421.188 225.205C417.945 227.823 416.924 228.074 417.145 229.233C417.366 230.392 411.176 246.364 411.176 246.364L401.089 242.139L422.569 157.361L437.904 154.19Z" fill="#312E81"/>
<path d="M202.954 184.414C196.557 171.924 193.508 158.511 194.893 143.873C194.731 143.052 194.862 142.192 195.258 141.481C195.654 140.77 196.283 140.266 197.006 140.08L223.988 133.172C224.711 132.988 225.47 133.137 226.096 133.587C226.723 134.036 227.167 134.749 227.331 135.569L235.391 176.11C235.554 176.931 235.423 177.791 235.027 178.502C234.631 179.213 234.002 179.717 233.279 179.903L206.297 186.81C205.573 186.995 204.815 186.846 204.189 186.396C203.562 185.947 203.118 185.234 202.954 184.414Z" fill="#E6E6E6"/>
<path d="M202.589 171.639C198.568 165.781 197.591 156.168 197.407 145.576C197.255 144.807 197.378 144.001 197.749 143.335C198.12 142.669 198.708 142.197 199.385 142.023L222.574 136.087C223.252 135.914 223.962 136.054 224.549 136.475C225.136 136.895 225.552 137.563 225.705 138.331L232.878 174.407C233.03 175.176 232.907 175.981 232.536 176.647C232.165 177.313 231.577 177.785 230.9 177.96L216.534 181.637C213.517 182.405 210.354 181.784 207.74 179.91C205.125 178.036 203.273 175.061 202.589 171.639Z" fill="white"/>
<path d="M211.609 151.725C212.081 151.107 212.718 150.679 213.422 150.504C214.127 150.33 214.862 150.419 215.519 150.758C216.175 151.154 216.7 151.78 217.016 152.544C217.332 153.307 217.42 154.166 217.269 154.991C217.014 156.9 216.136 158.637 216.056 160.59C215.984 161.446 216.116 162.308 216.437 163.087C216.759 163.865 217.258 164.532 217.883 165.017C218.841 165.677 219.826 164.043 218.864 163.38C217.281 162.289 217.813 159.89 218.272 158.254C218.846 156.212 219.443 154.129 218.734 152.024C218.42 151.143 217.916 150.365 217.269 149.762C216.621 149.159 215.851 148.749 215.028 148.571C214.205 148.393 213.356 148.452 212.558 148.742C211.761 149.032 211.04 149.545 210.462 150.233C209.707 151.158 210.844 152.661 211.609 151.725Z" fill="#312E81"/>
<path d="M219.294 170.723C220.258 170.723 221.039 169.836 221.039 168.743C221.039 167.65 220.258 166.763 219.294 166.763C218.33 166.763 217.549 167.65 217.549 168.743C217.549 169.836 218.33 170.723 219.294 170.723Z" fill="#312E81"/>
<path d="M48.7251 98.1897C42.3279 85.7001 39.2788 72.2866 40.6646 57.6491C40.5023 56.8284 40.6335 55.9681 41.0295 55.257C41.4255 54.5459 42.0539 54.042 42.7768 53.856L69.7594 46.9485C70.4827 46.7644 71.2409 46.9132 71.8676 47.3625C72.4942 47.8119 72.9383 48.5249 73.1022 49.3452L81.1627 89.8858C81.3251 90.7066 81.1938 91.5669 80.7979 92.278C80.4019 92.9891 79.7735 93.4929 79.0506 93.679L52.068 100.586C51.3446 100.771 50.5865 100.622 49.9598 100.172C49.3331 99.7231 48.889 99.0101 48.7251 98.1897Z" fill="#E6E6E6"/>
<path d="M48.3602 85.4149C44.3396 79.5572 43.3622 69.9441 43.1782 59.3517C43.0262 58.5831 43.149 57.7774 43.5199 57.1114C43.8907 56.4454 44.4792 55.9735 45.1563 55.7993L68.3456 49.863C69.023 49.6904 69.7331 49.8298 70.32 50.2506C70.907 50.6714 71.3228 51.3392 71.4764 52.1075L78.6492 88.1831C78.8012 88.9518 78.6783 89.7575 78.3074 90.4235C77.9365 91.0895 77.348 91.5614 76.6709 91.7356L62.3056 95.413C59.2882 96.1814 56.1253 95.5603 53.511 93.686C50.8966 91.8116 49.0442 88.8371 48.3602 85.4149Z" fill="white"/>
<path d="M60.4805 88.1647C61.8311 88.1647 62.9259 86.9223 62.9259 85.3899C62.9259 83.8574 61.8311 82.6151 60.4805 82.6151C59.13 82.6151 58.0351 83.8574 58.0351 85.3899C58.0351 86.9223 59.13 88.1647 60.4805 88.1647Z" fill="#312E81"/>
<path d="M63.4029 59.0362C62.4617 57.784 60.7395 57.983 59.3147 58.2911C57.8343 58.5352 56.3892 59.002 55.0175 59.6793C54.3325 60.0223 53.7141 60.5158 53.198 61.1313C52.682 61.7469 52.2784 62.4723 52.0106 63.2657C51.4415 65.2461 52.0612 67.3982 52.8047 69.3027C54.2359 72.9661 56.1358 76.3697 58.4428 79.4037L59.6085 80.0163C61.422 77.3947 62.7549 74.388 63.5288 71.1731C64.3026 67.9581 64.5018 64.6 64.1146 61.2964C64.0703 60.4818 63.8235 59.6982 63.4029 59.0362Z" fill="#312E81"/>
<path d="M561.917 427L-38.9237 426.324C-39.2094 426.323 -39.4832 426.2 -39.6849 425.982C-39.8867 425.765 -40 425.47 -40 425.162C-40 424.854 -39.8867 424.559 -39.6849 424.342C-39.4832 424.124 -39.2094 424.001 -38.9237 424L561.917 424.676C562.059 424.676 562.2 424.705 562.331 424.763C562.463 424.822 562.582 424.907 562.683 425.015C562.783 425.123 562.863 425.251 562.918 425.393C562.972 425.534 563 425.685 563 425.838C563 425.991 562.972 426.142 562.918 426.283C562.863 426.425 562.783 426.553 562.683 426.661C562.582 426.769 562.463 426.854 562.331 426.912C562.2 426.971 562.059 427 561.917 427Z" fill="#CACACA"/>
</g>
<defs>
<clipPath id="clip0_1_2">
<rect width="600" height="427" fill="white"/>
</clipPath>
</defs>
</svg>
