<svg width="430" height="430" viewBox="0 0 430 430" fill="none" xmlns="http://www.w3.org/2000/svg">
<g clip-path="url(#clip0_1_2)">
<path d="M382.028 327.242L382.019 327.436L392.115 430H318.448L308.899 367.008L304.696 428.385L229.046 427.577L237.081 346.996L243.915 309.645V309.637L244.941 304.016H380.019L380.195 306.051L382.028 327.242Z" fill="#2F2E41"/>
<path d="M187.347 386.699C195.149 388.064 203.284 379.623 205.518 367.843C206.495 362.687 206.18 357.746 204.862 353.706L206.058 346.915L226.134 255.57C226.134 255.57 263.102 184.522 263.101 172.187C263.1 159.853 252.407 153.804 252.407 153.804L237.937 153.934L192.561 260.412L184.389 339.096L183.067 349.891C180.351 353.225 178.242 357.742 177.265 362.898C175.031 374.677 179.545 385.333 187.347 386.699Z" fill="#FFB6B6"/>
<path d="M334.536 109.791L321.087 79.9097L277.378 87.1781L274.436 122.334L334.536 109.791Z" fill="#FFB6B6"/>
<path opacity="0.1" d="M334.536 109.791L321.087 79.9097L277.378 87.1781L274.436 122.334L334.536 109.791Z" fill="black"/>
<path d="M429.52 171.975C429.52 171.975 398.419 116.251 392.535 110.598C389.916 108.082 385.798 108.047 382.034 108.78L338.739 94.4464L324.064 86.5245L323.097 101.596L274.92 109.904C275.188 100.713 276.537 97.2168 276.537 97.2168L258.886 117.059L224.423 133.211L224.441 133.356C221.912 134.204 219.515 135.656 217.698 138.056C210.974 146.94 192.481 255.157 192.481 255.157L231.988 263.233L237.364 230.816L241.234 260.002L244.176 314.515C244.176 314.515 297.972 358.932 324.029 342.78C350.087 326.628 382.028 327.436 382.028 327.436L382.825 302.168C383.392 301.297 383.709 300.786 383.709 300.786L382.868 211.156V187.306C389.272 195.877 397 203.249 405.984 206.701C435.404 218.008 429.52 171.975 429.52 171.975Z" fill="#E6E6E6"/>
<path d="M294.664 92.4354C316.872 92.4354 334.875 75.1385 334.875 53.8016C334.875 32.4647 316.872 15.1677 294.664 15.1677C272.456 15.1677 254.453 32.4647 254.453 53.8016C254.453 75.1385 272.456 92.4354 294.664 92.4354Z" fill="#FFB6B6"/>
<path d="M323.511 64.7198C323.511 64.7198 327.008 52.9617 334.875 53.8016C342.742 54.6414 344.491 47.9225 342.742 44.563C340.994 41.2036 337.498 24.4062 337.498 24.4062C337.498 24.4062 339.246 12.6481 328.756 10.9684C318.266 9.28862 314.769 7.60888 313.021 4.24941C311.273 0.889944 285.048 -2.46952 276.307 2.56968C267.565 7.60888 260.572 17.2773 254.453 20.0019C248.334 22.7265 243.089 27.7657 246.585 36.1644C250.082 44.563 255.153 60.989 255.153 60.989C255.153 60.989 264.068 58.0009 265.817 63.0401C267.565 68.0793 260.572 61.3604 269.313 47.9225C278.055 34.4846 278.055 21.0468 292.041 26.086C306.028 31.1252 321.763 29.4454 320.014 39.5238C318.266 49.6022 323.511 64.7198 323.511 64.7198Z" fill="#2F2E41"/>
<path d="M321.052 370.994H15.6624C7.02597 370.994 0 364.243 0 355.946V200.087C0 191.79 7.02597 185.039 15.6624 185.039H321.052C329.688 185.039 336.714 191.79 336.714 200.087V355.946C336.714 364.243 329.688 370.994 321.052 370.994Z" fill="white"/>
<path d="M321.052 370.994H15.6624C7.02597 370.994 0 364.243 0 355.946V200.087C0 191.79 7.02597 185.039 15.6624 185.039H321.052C329.688 185.039 336.714 191.79 336.714 200.087V355.946C336.714 364.243 329.688 370.994 321.052 370.994ZM15.6624 187.552C8.46846 187.552 2.6155 193.175 2.6155 200.087V355.946C2.6155 362.858 8.46846 368.481 15.6624 368.481H321.052C328.246 368.481 334.099 362.858 334.099 355.946V200.087C334.099 193.175 328.246 187.552 321.052 187.552H15.6624Z" fill="#3F3D56"/>
<path d="M297.482 203.886C299.649 203.886 301.405 202.198 301.405 200.116C301.405 198.035 299.649 196.347 297.482 196.347C295.315 196.347 293.559 198.035 293.559 200.116C293.559 202.198 295.315 203.886 297.482 203.886Z" fill="#3F3D56"/>
<path d="M307.944 203.886C310.111 203.886 311.867 202.198 311.867 200.116C311.867 198.035 310.111 196.347 307.944 196.347C305.777 196.347 304.021 198.035 304.021 200.116C304.021 202.198 305.777 203.886 307.944 203.886Z" fill="#3F3D56"/>
<path d="M318.406 203.886C320.573 203.886 322.329 202.198 322.329 200.116C322.329 198.035 320.573 196.347 318.406 196.347C316.239 196.347 314.483 198.035 314.483 200.116C314.483 202.198 316.239 203.886 318.406 203.886Z" fill="#3F3D56"/>
<path d="M22.2318 261.054C21.1501 261.054 20.2702 261.9 20.2702 262.939C20.2702 263.446 20.4739 263.914 20.8436 264.261C21.2165 264.627 21.705 264.824 22.2318 264.824H315.79C316.872 264.824 317.752 263.978 317.752 262.939C317.752 262.432 317.548 261.964 317.179 261.618C316.806 261.251 316.317 261.054 315.79 261.054H22.2318Z" fill="#E6E6E6"/>
<path d="M279.173 260.426V265.452H22.2318C21.5125 265.452 20.8587 265.175 20.3879 264.711C19.9039 264.258 19.6163 263.63 19.6163 262.939C19.6163 261.557 20.7933 260.426 22.2318 260.426H279.173Z" fill="#312E81"/>
<path d="M312.521 251.003H286.366C283.482 251.003 281.135 248.749 281.135 245.977C281.135 243.205 283.482 240.951 286.366 240.951H312.521C315.405 240.951 317.752 243.205 317.752 245.977C317.752 248.749 315.405 251.003 312.521 251.003Z" fill="#E6E6E6"/>
<path d="M141.206 224.617H24.1934C21.3091 224.617 18.9624 222.363 18.9624 219.591C18.9624 216.82 21.3091 214.566 24.1934 214.566H141.206C144.09 214.566 146.437 216.82 146.437 219.591C146.437 222.363 144.09 224.617 141.206 224.617Z" fill="#E6E6E6"/>
<path d="M22.2318 317.595C21.1501 317.595 20.2702 318.44 20.2702 319.479C20.2702 319.986 20.4739 320.455 20.8436 320.801C21.2165 321.168 21.705 321.364 22.2318 321.364H315.79C316.872 321.364 317.752 320.519 317.752 319.479C317.752 318.973 317.548 318.504 317.179 318.158C316.806 317.791 316.317 317.595 315.79 317.595H22.2318Z" fill="#E6E6E6"/>
<path d="M178.477 316.967V321.992H22.2318C21.5125 321.992 20.8587 321.716 20.3879 321.251C19.9039 320.799 19.6163 320.17 19.6163 319.479C19.6163 318.097 20.7933 316.967 22.2318 316.967H178.477Z" fill="#312E81"/>
<path d="M312.521 307.543H286.366C283.482 307.543 281.135 305.289 281.135 302.517C281.135 299.746 283.482 297.492 286.366 297.492H312.521C315.405 297.492 317.752 299.746 317.752 302.517C317.752 305.289 315.405 307.543 312.521 307.543Z" fill="#E6E6E6"/>
<path d="M358.309 95.4092C380.929 95.4092 399.267 78.1624 399.267 56.8873C399.267 35.6123 380.929 18.3655 358.309 18.3655C335.689 18.3655 317.352 35.6123 317.352 56.8873C317.352 78.1624 335.689 95.4092 358.309 95.4092Z" fill="#312E81"/>
<path d="M372.21 37.4567C366.758 46.996 361.305 56.5355 355.852 66.0749C352.377 60.1755 348.921 54.2656 345.437 48.3708C344.234 46.335 340.961 48.1661 342.167 50.207C346.206 57.0404 350.202 63.8966 354.241 70.73C354.931 71.8984 356.827 71.9255 357.51 70.73C363.5 60.2509 369.49 49.7719 375.48 39.2929C376.654 37.2395 373.385 35.4017 372.21 37.4567Z" fill="white"/>
<path d="M414.849 158.426L374.042 139.671C374.042 139.671 372.403 127.118 364.751 122.641C363.45 119.659 361.953 116.383 360.593 113.787C357.231 107.368 362.275 95.254 358.072 95.254C353.869 95.254 347.656 107.994 347.985 111.406C348.237 114.025 350.49 118.597 350.956 122.6C345.831 124.457 341.696 127.64 338.978 130.174C336.626 132.367 335.752 135.639 336.671 138.662C339.335 147.422 345.994 165.514 355.55 165.514C368.158 165.514 371.521 163.092 371.521 163.092C371.521 163.092 397.578 194.588 416.911 197.01C436.244 199.433 414.849 158.426 414.849 158.426Z" fill="#FFB6B6"/>
</g>
<defs>
<clipPath id="clip0_1_2">
<rect width="430" height="430" fill="white"/>
</clipPath>
</defs>
</svg>
