<svg width="430" height="430" viewBox="0 0 430 430" fill="none" xmlns="http://www.w3.org/2000/svg">
<g clip-path="url(#clip0_3_2)">
<path d="M398.127 398.521L409.71 394.288C411.154 387.126 411.058 379.666 409.431 372.556C404.778 384.477 391.125 387.398 383.346 396.913C380.94 399.902 379.148 403.476 378.104 407.372C377.059 411.267 376.789 415.383 377.313 419.415L374.876 428.94C380.568 428.379 386.087 426.404 391.052 423.15C396.017 419.896 400.311 415.44 403.638 410.09C405.478 407.067 406.981 403.79 408.111 400.334C403.171 399.764 398.127 398.521 398.127 398.521Z" fill="#F2F2F2"/>
<path d="M385.75 380.909L394.479 371.169C392.998 364.016 390.025 357.388 385.817 351.86C386.266 364.922 375.177 374.551 371.898 387.064C370.901 390.976 370.681 395.096 371.254 399.119C371.827 403.143 373.179 406.965 375.209 410.305L376.714 420.082C381.592 416.656 385.766 412.052 388.951 406.589C392.135 401.125 394.254 394.93 395.16 388.432C395.638 384.781 395.714 381.075 395.387 377.402C390.746 379.43 385.75 380.909 385.75 380.909Z" fill="#F2F2F2"/>
<path d="M327.726 28.5506H1.26974C0.930189 28.5423 0.606977 28.3811 0.36938 28.1015C0.131783 27.8219 -0.00128174 27.4462 -0.00128174 27.0549C-0.00128174 26.6636 0.131783 26.2879 0.36938 26.0083C0.606977 25.7287 0.930189 25.5674 1.26974 25.5591H327.726C328.066 25.5674 328.389 25.7287 328.627 26.0083C328.864 26.2879 328.997 26.6636 328.997 27.0549C328.997 27.4462 328.864 27.8219 328.627 28.1015C328.389 28.3811 328.066 28.5423 327.726 28.5506Z" fill="#3F3D56"/>
<path d="M23.4923 17.9222C27.6942 17.9222 31.1005 13.9102 31.1005 8.96109C31.1005 4.01202 27.6942 0 23.4923 0C19.2904 0 15.884 4.01202 15.884 8.96109C15.884 13.9102 19.2904 17.9222 23.4923 17.9222Z" fill="#3F3D56"/>
<path d="M49.7752 17.9222C53.9771 17.9222 57.3834 13.9102 57.3834 8.96109C57.3834 4.01202 53.9771 0 49.7752 0C45.5733 0 42.167 4.01202 42.167 8.96109C42.167 13.9102 45.5733 17.9222 49.7752 17.9222Z" fill="#3F3D56"/>
<path d="M76.0581 17.9222C80.2601 17.9222 83.6664 13.9102 83.6664 8.96109C83.6664 4.01202 80.2601 0 76.0581 0C71.8562 0 68.4499 4.01202 68.4499 8.96109C68.4499 13.9102 71.8562 17.9222 76.0581 17.9222Z" fill="#3F3D56"/>
<path d="M311.902 2.22113H293.232C292.862 2.22962 292.51 2.40495 292.25 2.70947C291.991 3.01399 291.846 3.42342 291.846 3.84986C291.846 4.2763 291.991 4.68573 292.25 4.99025C292.51 5.29477 292.862 5.4701 293.232 5.47859H311.902C312.272 5.4701 312.625 5.29477 312.884 4.99025C313.143 4.68573 313.288 4.2763 313.288 3.84986C313.288 3.42342 313.143 3.01399 312.884 2.70947C312.625 2.40495 312.272 2.22962 311.902 2.22113Z" fill="#3F3D56"/>
<path d="M311.902 8.33484H293.232C292.862 8.34327 292.509 8.51859 292.25 8.82311C291.991 9.12764 291.846 9.5371 291.846 9.96357C291.846 10.39 291.991 10.7995 292.25 11.104C292.509 11.4086 292.862 11.5839 293.232 11.5923H311.902C312.272 11.5839 312.625 11.4086 312.884 11.104C313.143 10.7995 313.288 10.39 313.288 9.96357C313.288 9.5371 313.143 9.12764 312.884 8.82311C312.625 8.51859 312.272 8.34327 311.902 8.33484Z" fill="#3F3D56"/>
<path d="M311.902 14.4406H293.232C292.862 14.449 292.509 14.6243 292.25 14.9289C291.991 15.2334 291.846 15.6429 291.846 16.0693C291.846 16.4958 291.991 16.9053 292.25 17.2098C292.509 17.5143 292.862 17.6896 293.232 17.6981H311.902C312.272 17.6896 312.625 17.5143 312.884 17.2098C313.143 16.9053 313.288 16.4958 313.288 16.0693C313.288 15.6429 313.143 15.2334 312.884 14.9289C312.625 14.6243 312.272 14.449 311.902 14.4406Z" fill="#3F3D56"/>
<path d="M25.2901 89.3212C30.4849 89.3212 34.6962 84.4693 34.6962 78.4841C34.6962 72.4989 30.4849 67.647 25.2901 67.647C20.0953 67.647 15.884 72.4989 15.884 78.4841C15.884 84.4693 20.0953 89.3212 25.2901 89.3212Z" fill="#E6E7E8"/>
<path d="M264.817 102.481H18.6851C17.9422 102.481 17.2298 102.141 16.7045 101.536C16.1793 100.931 15.8842 100.11 15.8842 99.2541C15.8842 98.3983 16.1793 97.5774 16.7045 96.9722C17.2298 96.367 17.9422 96.027 18.6851 96.027H264.817C265.56 96.027 266.272 96.367 266.798 96.9722C267.323 97.5774 267.618 98.3983 267.618 99.2541C267.618 100.11 267.323 100.931 266.798 101.536C266.272 102.141 265.56 102.481 264.817 102.481Z" fill="#E6E7E8"/>
<path d="M200.265 115.233H18.6851C17.9422 115.233 17.2297 114.893 16.7044 114.288C16.1791 113.683 15.884 112.862 15.884 112.006C15.884 111.15 16.1791 110.329 16.7044 109.724C17.2297 109.119 17.9422 108.779 18.6851 108.779H200.265C201.007 108.779 201.72 109.119 202.245 109.724C202.771 110.329 203.066 111.15 203.066 112.006C203.066 112.862 202.771 113.683 202.245 114.288C201.72 114.893 201.007 115.233 200.265 115.233Z" fill="#E6E7E8"/>
<path d="M25.2901 258.472C30.4849 258.472 34.6962 253.62 34.6962 247.635C34.6962 241.649 30.4849 236.797 25.2901 236.797C20.0953 236.797 15.884 241.649 15.884 247.635C15.884 253.62 20.0953 258.472 25.2901 258.472Z" fill="#E6E7E8"/>
<path d="M264.817 271.632H18.6851C18.3169 271.632 17.9522 271.549 17.6119 271.388C17.2715 271.226 16.9622 270.988 16.7016 270.688C16.4411 270.389 16.2344 270.033 16.0933 269.641C15.9523 269.249 15.8797 268.829 15.8797 268.405C15.8797 267.98 15.9523 267.56 16.0933 267.169C16.2344 266.777 16.4411 266.421 16.7016 266.121C16.9622 265.821 17.2715 265.584 17.6119 265.422C17.9522 265.26 18.3169 265.177 18.6851 265.178H264.817C265.597 265.228 266.333 265.612 266.88 266.255C267.427 266.898 267.746 267.754 267.774 268.654C267.751 269.073 267.656 269.484 267.494 269.861C267.333 270.238 267.108 270.575 266.834 270.852C266.559 271.129 266.239 271.34 265.893 271.474C265.547 271.608 265.181 271.662 264.817 271.632Z" fill="#E6E7E8"/>
<path d="M200.265 284.384H18.6851C17.9422 284.384 17.2297 284.044 16.7044 283.438C16.1791 282.833 15.884 282.012 15.884 281.156C15.884 280.3 16.1791 279.48 16.7044 278.874C17.2297 278.269 17.9422 277.929 18.6851 277.929H200.265C201.007 277.929 201.72 278.269 202.245 278.874C202.771 279.48 203.066 280.3 203.066 281.156C203.066 282.012 202.771 282.833 202.245 283.438C201.72 284.044 201.007 284.384 200.265 284.384Z" fill="#E6E7E8"/>
<path d="M25.2901 167.521C30.4849 167.521 34.6962 162.669 34.6962 156.683C34.6962 150.698 30.4849 145.846 25.2901 145.846C20.0953 145.846 15.884 150.698 15.884 156.683C15.884 162.669 20.0953 167.521 25.2901 167.521Z" fill="#E6E7E8"/>
<path d="M264.817 180.681H18.6851C17.9422 180.681 17.2298 180.341 16.7045 179.735C16.1793 179.13 15.8842 178.309 15.8842 177.454C15.8842 176.598 16.1793 175.777 16.7045 175.172C17.2298 174.566 17.9422 174.226 18.6851 174.226H264.817C265.56 174.226 266.272 174.566 266.798 175.172C267.323 175.777 267.618 176.598 267.618 177.454C267.618 178.309 267.323 179.13 266.798 179.735C266.272 180.341 265.56 180.681 264.817 180.681Z" fill="#E6E7E8"/>
<path d="M230.541 193.432H18.6851C17.9422 193.432 17.2297 193.092 16.7044 192.487C16.1791 191.882 15.884 191.061 15.884 190.205C15.884 189.349 16.1791 188.528 16.7044 187.923C17.2297 187.318 17.9422 186.978 18.6851 186.978H230.541C231.284 186.978 231.997 187.318 232.522 187.923C233.047 188.528 233.342 189.349 233.342 190.205C233.342 191.061 233.047 191.882 232.522 192.487C231.997 193.092 231.284 193.432 230.541 193.432Z" fill="#E6E7E8"/>
<path d="M216.162 206.184H18.6851C17.9422 206.184 17.2297 205.844 16.7044 205.239C16.1791 204.634 15.884 203.813 15.884 202.957C15.884 202.101 16.1791 201.28 16.7044 200.675C17.2297 200.07 17.9422 199.73 18.6851 199.73H216.162C216.905 199.73 217.617 200.07 218.143 200.675C218.668 201.28 218.963 202.101 218.963 202.957C218.963 203.813 218.668 204.634 218.143 205.239C217.617 205.844 216.905 206.184 216.162 206.184Z" fill="#E6E7E8"/>
<path d="M220.248 348.853C258.719 348.853 289.905 312.922 289.905 268.599C289.905 224.275 258.719 188.344 220.248 188.344C181.778 188.344 150.591 224.275 150.591 268.599C150.591 312.922 181.778 348.853 220.248 348.853Z" fill="#312E81"/>
<path d="M220.153 296.6C225.648 296.6 230.103 291.467 230.103 285.135C230.103 278.803 225.648 273.67 220.153 273.67C214.657 273.67 210.202 278.803 210.202 285.135C210.202 291.467 214.657 296.6 220.153 296.6Z" fill="#3F3D56"/>
<path d="M220.153 290.426C222.689 290.426 224.745 288.057 224.745 285.135C224.745 282.212 222.689 279.843 220.153 279.843C217.616 279.843 215.56 282.212 215.56 285.135C215.56 288.057 217.616 290.426 220.153 290.426Z" fill="#312E81"/>
<path d="M238.624 310.656H201.872C198.233 310.651 194.744 308.984 192.171 306.019C189.597 303.054 188.15 299.035 188.146 294.842V275.427C188.15 271.235 189.597 267.215 192.171 264.25C194.744 261.285 198.233 259.617 201.872 259.613H238.624C242.264 259.618 245.752 261.285 248.326 264.25C250.899 267.215 252.346 271.235 252.351 275.427V294.842C252.346 299.035 250.899 303.054 248.326 306.019C245.752 308.984 242.264 310.651 238.624 310.656ZM201.872 261.269C198.614 261.273 195.49 262.766 193.186 265.42C190.883 268.075 189.587 271.674 189.583 275.427V294.842C189.587 298.596 190.883 302.194 193.187 304.849C195.49 307.503 198.614 308.996 201.872 309H238.624C241.882 308.996 245.006 307.503 247.31 304.849C249.614 302.194 250.91 298.596 250.913 294.842V275.427C250.91 271.674 249.614 268.075 247.31 265.42C245.006 262.766 241.883 261.273 238.624 261.269L201.872 261.269Z" fill="white"/>
<path d="M199.695 300.117H232.317C234.01 300.117 235.687 299.733 237.251 298.987C238.815 298.24 240.237 297.146 241.434 295.766C242.631 294.387 243.581 292.749 244.229 290.947C244.877 289.145 245.21 287.213 245.21 285.262V269.015C245.208 267.213 244.92 265.427 244.36 263.745C245.951 265.126 247.243 266.914 248.132 268.967C249.021 271.021 249.484 273.285 249.484 275.581V291.828C249.484 293.778 249.151 295.71 248.503 297.512C247.855 299.315 246.905 300.952 245.708 302.332C244.51 303.711 243.089 304.805 241.525 305.552C239.96 306.299 238.284 306.683 236.591 306.683H203.969C201.355 306.681 198.803 305.763 196.652 304.051C194.501 302.339 192.853 299.914 191.926 297.098C194.159 299.057 196.889 300.118 199.695 300.117Z" fill="#3F3D56"/>
<path d="M299.592 419.383L291.577 419.382L287.763 383.759L299.595 383.759L299.592 419.383Z" fill="#FFB6B6"/>
<path d="M299.875 429.017L275.225 429.016V428.657C275.225 425.725 276.236 422.914 278.035 420.841C279.835 418.768 282.275 417.603 284.82 417.603L289.323 413.667L297.724 417.603L299.876 417.603L299.875 429.017Z" fill="#2F2E41"/>
<path d="M356.311 419.383L364.327 419.382L368.141 383.759L356.31 383.759L356.311 419.383Z" fill="#FFB6B6"/>
<path d="M356.029 429.017L380.679 429.016V428.657C380.679 425.725 379.668 422.914 377.869 420.841C376.069 418.768 373.629 417.603 371.084 417.603L366.581 413.667L358.18 417.603L356.028 417.603L356.029 429.017Z" fill="#2F2E41"/>
<path d="M287.411 357.581C287.529 355.548 288.47 344.307 288.47 344.307L290.725 320.467L294.699 257.272L294.958 253.136L315.774 248.531L330.001 240.673L346.911 246.901L360.078 252.59C360.078 252.59 360.1 255.026 360.202 257.967C360.337 261.818 360.574 266.54 361.137 267.767C362.079 269.936 361.842 281.58 361.842 281.58C361.842 281.58 362.778 305.271 363.956 307.868C365.134 310.466 365.37 315.876 365.015 316.96C364.66 318.045 366.193 346.496 366.193 346.496C366.193 346.496 370.128 396.843 367.659 404.435C365.191 412.026 355.861 407.053 355.861 407.053C355.861 407.053 356.312 405.027 353.607 404.073C350.901 403.118 342.661 331.728 342.661 331.728C342.661 331.728 341.127 317.09 339.718 312.895C338.309 308.7 337.013 296.913 337.013 296.913C337.013 296.913 328.31 277.404 328.197 273.066C328.197 273.066 327.058 269.007 325.982 273.475C324.905 277.943 321.732 288.646 321.732 288.646L318.637 301.79L314.996 321.428L312.64 337.962C312.64 337.962 309.112 359.906 308.548 360.854C307.984 361.802 308.548 381.85 308.548 381.85C308.548 381.85 305.82 398.923 301.964 401.904C298.109 404.884 287.894 401.951 287.894 401.951C287.894 401.951 287.292 359.614 287.411 357.581Z" fill="#2F2E41"/>
<path d="M296.291 195.5L300.919 211.56L295.209 219.391L297.723 222.373L295.869 226.587L291.032 270.761L317.547 282.346L326.475 269.448L333.516 282.346L364.196 273.709L356.371 217.379V213.696L354.162 206.585V191.531L359.996 146.722L342.584 139.695L334.259 132.104L331.565 142.78L320.095 140.43L319.796 132.409L311.02 141.962L303.63 144.391L294.781 146.722L293.653 149.969L295.907 149.32L295.542 191.565L296.291 195.5Z" fill="#2F2E41"/>
<path d="M288.366 254.262L292.819 204.601L293.994 184.162L281.53 181.565C281.53 181.565 282.024 196.18 280.391 204.425C278.78 212.562 280.178 253.171 280.277 254.257C279.362 255.2 278.717 256.441 278.427 257.816C278.137 259.191 278.216 260.635 278.654 261.957C279.092 263.278 279.867 264.416 280.879 265.219C281.89 266.021 283.089 266.451 284.316 266.452C285.544 266.453 286.744 266.024 287.755 265.222C288.767 264.421 289.544 263.284 289.983 261.963C290.422 260.641 290.502 259.198 290.213 257.823C289.925 256.448 289.28 255.206 288.366 254.262Z" fill="#FFB6B6"/>
<path d="M276.208 214.891L279.675 215.716L291.568 218.554L292.227 218.71L293.631 212.281L295.26 210.28L298.36 191.564L298.523 190.59L303.207 179.057L306.448 144.391L294.397 146.885C294.335 146.956 294.279 147.034 294.222 147.112C292.492 149.372 291.257 152.515 289.24 155.678C282.673 165.971 277.634 190.98 277.832 204.682C277.837 204.903 277.64 205.144 277.403 205.39C276.286 206.574 275.557 208.165 275.339 209.896C275.121 211.627 275.428 213.391 276.208 214.891Z" fill="#2F2E41"/>
<path d="M365.847 254.262L361.394 204.601L360.219 184.162L372.683 181.565C372.683 181.565 372.189 196.18 373.822 204.425C375.433 212.562 374.035 253.171 373.936 254.257C374.851 255.2 375.497 256.441 375.786 257.816C376.076 259.191 375.997 260.635 375.559 261.956C375.121 263.278 374.346 264.416 373.334 265.219C372.323 266.021 371.124 266.451 369.897 266.452C368.669 266.453 367.469 266.024 366.458 265.222C365.446 264.421 364.669 263.284 364.23 261.963C363.791 260.641 363.711 259.198 364 257.823C364.288 256.448 364.933 255.206 365.847 254.262Z" fill="#FFB6B6"/>
<path d="M378.005 214.891L374.538 215.716L362.645 218.554L361.986 218.71L360.582 212.281L358.953 210.28L355.853 191.564L355.69 190.59L351.006 179.057L352.077 144.391L359.816 146.885C359.878 146.956 359.934 147.034 359.991 147.112C361.721 149.372 362.956 152.515 364.973 155.678C371.54 165.971 376.579 190.98 376.382 204.682C376.376 204.903 376.573 205.144 376.81 205.39C377.927 206.574 378.656 208.165 378.874 209.896C379.092 211.627 378.785 213.391 378.005 214.891Z" fill="#2F2E41"/>
<path d="M314.134 149.52L319.796 132.409L334.259 132.104L339.059 149.52L356.309 260.549C356.309 260.549 303.46 277.505 303.997 257.123C304.56 235.692 307.103 207.225 307.103 207.225L314.134 149.52Z" fill="#312E81"/>
<path d="M326.704 127.623C336.114 127.623 343.742 118.834 343.742 107.993C343.742 97.1514 336.114 88.3626 326.704 88.3626C317.294 88.3626 309.666 97.1514 309.666 107.993C309.666 118.834 317.294 127.623 326.704 127.623Z" fill="#FFB6B6"/>
<path d="M308.661 93.7523C311.435 90.2739 314.905 83.9066 325.414 81.2328C338.399 77.9289 344.535 91.4442 341.26 91.6657C350.836 95.0066 344.685 117.837 341.94 115.922C341.916 115.904 341.893 115.883 341.872 115.861C340.395 114.609 339.156 113.022 338.23 111.199C337.304 109.376 336.71 107.355 336.484 105.258L335.963 99.8558C335.889 104.252 331.989 104.833 328.005 103.214C328.241 102.25 328.69 101.374 329.31 100.672C329.929 99.9691 330.696 99.4648 331.536 99.2084C328.759 102.109 325.232 103.878 321.497 104.242C321.692 103.141 322.09 102.101 322.663 101.192C323.237 100.284 323.972 99.5267 324.82 98.9724L324.663 98.7944C323.107 100.306 321.321 101.471 319.396 102.231C317.199 102.956 314.568 102.564 313.063 100.583C312.658 100.036 312.352 99.4018 312.163 98.7167C312.489 102.198 310.462 106.172 308.888 105.489C307.578 105.196 306.815 96.068 308.661 93.7523Z" fill="#2F2E41"/>
<path d="M430 429.015C430 429.144 429.978 429.273 429.936 429.392C429.893 429.512 429.83 429.621 429.75 429.712C429.671 429.804 429.576 429.876 429.472 429.926C429.369 429.975 429.257 430 429.145 430H227.727C227.501 430 227.283 429.896 227.123 429.711C226.962 429.527 226.872 429.276 226.872 429.015C226.872 428.753 226.962 428.503 227.123 428.318C227.283 428.133 227.501 428.03 227.727 428.03H429.145C429.257 428.029 429.369 428.054 429.472 428.104C429.576 428.153 429.671 428.226 429.75 428.317C429.83 428.409 429.893 428.518 429.936 428.637C429.978 428.757 430 428.885 430 429.015Z" fill="#CCCCCC"/>
<path d="M220.814 225.084C214.001 225.084 208.012 228.638 204.622 233.972C208.246 230.932 212.623 229.314 217.106 229.356C227.656 229.356 236.239 237.871 236.239 248.337V257.037H239.947V244.065C239.947 233.599 231.364 225.084 220.814 225.084Z" fill="#3F3D56"/>
<path d="M242.495 261.489H198.001V246.406C198.001 234.237 207.981 224.337 220.248 224.337C232.515 224.337 242.495 234.237 242.495 246.406V261.489ZM199.438 259.833H241.058V246.406C241.058 235.15 231.723 225.992 220.248 225.992C208.773 225.992 199.438 235.15 199.438 246.406V259.833Z" fill="white"/>
<path d="M231.643 255.731H208.853C207.828 255.73 206.845 255.26 206.12 254.424C205.395 253.589 204.987 252.456 204.986 251.275V245.273C204.986 236.904 211.833 230.095 220.248 230.095C228.664 230.095 235.51 236.904 235.51 245.273V251.275C235.509 252.456 235.102 253.589 234.377 254.424C233.652 255.26 232.669 255.73 231.643 255.731ZM220.248 231.751C212.625 231.751 206.423 237.816 206.423 245.273V251.275C206.424 252.017 206.68 252.729 207.135 253.254C207.591 253.779 208.209 254.074 208.853 254.075H231.643C232.288 254.074 232.905 253.779 233.361 253.254C233.816 252.729 234.073 252.017 234.073 251.275V245.273C234.073 237.816 227.871 231.751 220.248 231.751Z" fill="white"/>
</g>
<defs>
<clipPath id="clip0_3_2">
<rect width="430" height="430" fill="white"/>
</clipPath>
</defs>
</svg>
